<svg width="20" height="20" viewBox="0 0 20 20" fill="none" xmlns="http://www.w3.org/2000/svg">
<path d="M7.99902 1.45316C12.1412 1.45316 15.499 4.81129 15.499 8.95316C15.499 10.6724 14.8938 12.2844 13.916 13.5528L13.6465 13.9024L13.96 14.2129L18.3652 18.5889C18.5352 18.7604 18.5559 19.0409 18.4277 19.2393L18.3643 19.3184C18.1932 19.489 17.9115 19.5101 17.7129 19.3819L17.6338 19.3184L13.2646 14.9112L12.9541 14.5977L12.6045 14.8672C11.3356 15.8454 9.71791 16.4532 7.99902 16.4532C3.85688 16.4532 0.499023 13.095 0.499023 8.95316L0.508789 8.56741C0.709658 4.60477 3.98627 1.45316 7.99902 1.45316ZM7.99902 2.45316C4.4092 2.45316 1.49903 5.363 1.49902 8.95316L1.50781 9.28812C1.68222 12.7226 4.52152 15.4532 7.99902 15.4532C11.5888 15.4532 14.499 12.5433 14.499 8.95316L14.4902 8.61819C14.3158 5.18376 11.4765 2.45316 7.99902 2.45316ZM7.99902 6.45316C8.27508 6.45316 8.49902 6.6772 8.49902 6.95316V8.45316H9.99902C10.2751 8.45316 10.499 8.6772 10.499 8.95316C10.499 9.22911 10.2751 9.45315 9.99902 9.45316H8.49902V10.9532C8.49902 11.2291 8.27508 11.4532 7.99902 11.4532C7.72296 11.4532 7.49902 11.2291 7.49902 10.9532V9.45316H5.99902C5.72296 9.45316 5.49902 9.22911 5.49902 8.95316C5.49903 8.6772 5.72297 8.45316 5.99902 8.45316H7.49902V6.95316C7.49903 6.6772 7.72297 6.45316 7.99902 6.45316Z" stroke="white"/>
</svg>
